<?xml version="1.0" encoding="utf-8"?><svg id="Layer_1" data-name="Layer 1" xmlns="http://www.w3.org/2000/svg" viewBox="0 0 420.72 135.58"><defs><style>.cls-1{fill:#64513d;}.cls-2{fill:#cc9f53;}</style></defs><title>DelMarLogo_web_02</title><path class="cls-1" d="M195.18,113.76h-5.24a5.14,5.14,0,0,1,1.39,3.54v3.81h-6.72V117.3a5.25,5.25,0,0,1,1.39-3.54h-5.26a5.25,5.25,0,0,1,1.39,3.54v10.11a5.13,5.13,0,0,1-1.39,3.53H186a5.14,5.14,0,0,1-1.39-3.54v-5h6.72v5a5.14,5.14,0,0,1-1.39,3.54h5.24a5.17,5.17,0,0,1-1.37-3.51V117.28A5.18,5.18,0,0,1,195.18,113.76Z" transform="translate(-5.55 -5.69)"/><path class="cls-1" d="M207.05,118h-1.48l-3.82,9.67a9.85,9.85,0,0,1-2.15,3.31h4.23a3.13,3.13,0,0,1-.58-3.22l.15-.39h4.67l.16.39a3.17,3.17,0,0,1-.58,3.22h5.26a9.68,9.68,0,0,1-2.1-3.29Zm-3.15,8.18,1.91-4.84,1.82,4.84Z" transform="translate(-5.55 -5.69)"/><path class="cls-1" d="M163.26,118h-1.48L158,127.63a9.85,9.85,0,0,1-2.15,3.31H160a3.13,3.13,0,0,1-.58-3.22l.15-.39h4.67l.15.39a3.15,3.15,0,0,1-.57,3.22h5.26a9.68,9.68,0,0,1-2.1-3.29Zm-3.15,8.18L162,121.3l1.82,4.84Z" transform="translate(-5.55 -5.69)"/><path class="cls-1" d="M216.37,120.78a5.75,5.75,0,0,1,4-1.63h.08v8.38a5,5,0,0,1-1.35,3.41h5a4.94,4.94,0,0,1-1.33-3.39v-8.4h.08a5.78,5.78,0,0,1,4,1.63V118H216.37Z" transform="translate(-5.55 -5.69)"/><path class="cls-1" d="M233.51,121.38v6.15a5,5,0,0,1-1.35,3.41h5a5,5,0,0,1-1.33-3.39v-3h1a4.57,4.57,0,0,1,3.12,1.22v-3.62a4.6,4.6,0,0,1-3.12,1.21h-1v-4.25h1.54a5.93,5.93,0,0,1,4.1,1.63V118h-9.33A5,5,0,0,1,233.51,121.38Z" transform="translate(-5.55 -5.69)"/><path class="cls-1" d="M251.18,118h-5a5,5,0,0,1,1.33,3.4v6.19a4.94,4.94,0,0,1-1.33,3.39h5a4.94,4.94,0,0,1-1.33-3.39v-6.19A5,5,0,0,1,251.18,118Z" transform="translate(-5.55 -5.69)"/><path class="cls-1" d="M258.07,121.38v6.15a5,5,0,0,1-1.35,3.41h9.33v-2.81a6.05,6.05,0,0,1-4.1,1.62h-1.54v-5.16h1a4.59,4.59,0,0,1,3.11,1.22v-3.62a4.63,4.63,0,0,1-3.11,1.21h-1v-4.25H262a5.93,5.93,0,0,1,4.1,1.63V118h-9.33A5,5,0,0,1,258.07,121.38Z" transform="translate(-5.55 -5.69)"/><path class="cls-1" d="M275.18,129.75v-8.39a5,5,0,0,1,1.33-3.4h-5a5,5,0,0,1,1.36,3.42v6.15a5,5,0,0,1-1.36,3.41h8.84v-2.81a6.07,6.07,0,0,1-4.16,1.62Z" transform="translate(-5.55 -5.69)"/><path class="cls-1" d="M290.81,118h-6.13a5,5,0,0,1,1.36,3.42v6.15a5,5,0,0,1-1.36,3.41h6.13a6.41,6.41,0,0,0,6.3-6.47A6.34,6.34,0,0,0,290.81,118Zm-.53,11.79h-1.9v-10.6h1.9c2.74,0,4,2.76,4,5.32S293,129.75,290.28,129.75Z" transform="translate(-5.55 -5.69)"/><path class="cls-1" d="M314.4,113.52c-4.56,0-7.39,4.59-7.39,8.83,0,5.53,3.76,8.83,7.39,8.83a7.44,7.44,0,0,0,4.3-1v-3.37l-2.24,2.24a2.63,2.63,0,0,1-2.06.85c-3.16,0-4.29-3.91-4.29-7.58,0-2.28.42-7.58,4.29-7.58a2.67,2.67,0,0,1,2.06.85l2.24,2.24v-3.34l-.05,0A7.15,7.15,0,0,0,314.4,113.52Z" transform="translate(-5.55 -5.69)"/><path class="cls-1" d="M330.52,117.7a6.77,6.77,0,0,0,0,13.51c3.94,0,6.3-3.43,6.3-6.74S334.46,117.7,330.52,117.7Zm0,12.32c-1,0-3.46-.54-3.46-5.55s2.42-5.58,3.46-5.58,3.43.54,3.43,5.58S331.55,130,330.52,130Z" transform="translate(-5.55 -5.69)"/><path class="cls-1" d="M357.74,118h-3.59L350.31,124,346.48,118h-4.23a5,5,0,0,1,1.35,3.42v6.14a5,5,0,0,1-1.35,3.42h4.14a4.88,4.88,0,0,1-1.27-3.3v-7.28l4.46,7,4.49-7v7.18a4.94,4.94,0,0,1-1.33,3.39h5a4.94,4.94,0,0,1-1.33-3.39v-6.19A5,5,0,0,1,357.74,118Z" transform="translate(-5.55 -5.69)"/><path class="cls-1" d="M373.13,118.92a7.63,7.63,0,0,0-3.81-1h-5.6a5,5,0,0,1,1.36,3.42v6.15a5,5,0,0,1-1.36,3.41h5a6.52,6.52,0,0,1-1.34-3.89V125.5h1.9a7.63,7.63,0,0,0,3.81-1,3.12,3.12,0,0,0,0-5.63Zm-3.81,5.39h-1.9v-5.16h1.9a2.6,2.6,0,1,1,0,5.16Z" transform="translate(-5.55 -5.69)"/><path class="cls-1" d="M385.15,118h-1.47l-3.83,9.67a9.7,9.7,0,0,1-2.15,3.31h4.23a3.17,3.17,0,0,1-.58-3.22l.16-.39h4.67l.15.39a3.13,3.13,0,0,1-.58,3.22H391a9.83,9.83,0,0,1-2.1-3.29ZM382,126.14l1.92-4.84,1.82,4.84Z" transform="translate(-5.55 -5.69)"/><path class="cls-1" d="M405.2,121.34v5L399.26,118h-3.82a5,5,0,0,1,1.35,3.42v6.14a5,5,0,0,1-1.35,3.42h4.17a4.86,4.86,0,0,1-1.3-3.32v-6.78l.14.2,8.3,11.29v-11a5,5,0,0,1,1.3-3.38H403.9A5,5,0,0,1,405.2,121.34Z" transform="translate(-5.55 -5.69)"/><path class="cls-1" d="M420.68,121l-1.56,2.55L417.48,121a2.53,2.53,0,0,1,.22-3h-5.2l.39.39a12.61,12.61,0,0,1,1.72,2.14l2.86,4.42v2.61a5,5,0,0,1-1.36,3.42h5a4.94,4.94,0,0,1-1.33-3.39v-2.61l2.41-3.87a18.79,18.79,0,0,1,2.44-3.11h-4.23A2.62,2.62,0,0,1,420.68,121Z" transform="translate(-5.55 -5.69)"/><path class="cls-1" d="M193.37,73.24c0-12.14-7.74-23.72-19.38-23.72H155.45a14.15,14.15,0,0,1,3.91,9.77V87.2A14.15,14.15,0,0,1,155.45,97H174C185.63,97,193.37,85.39,193.37,73.24Zm-21,19.87h-6.13V53.38h6.13c8.66,0,12.49,10.53,12.49,19.86S181,93.11,172.38,93.11Z" transform="translate(-5.55 -5.69)"/><path class="cls-1" d="M206.12,97h28.34V89a17.89,17.89,0,0,1-12.08,4.69h-5.46V76.84h3.63a13.7,13.7,0,0,1,9.16,3.51V70a13.66,13.66,0,0,1-9.16,3.52h-3.63V59.6h5.46a17.89,17.89,0,0,1,12.08,4.69v-8H206.12a11.83,11.83,0,0,1,3.9,8.78V88.2A11.83,11.83,0,0,1,206.12,97Z" transform="translate(-5.55 -5.69)"/><path class="cls-1" d="M247.21,97h26.73V89a17.89,17.89,0,0,1-12.08,4.69H258V65.07a11.81,11.81,0,0,1,3.91-8.78H247.21a11.83,11.83,0,0,1,3.9,8.78V88.2A11.83,11.83,0,0,1,247.21,97Z" transform="translate(-5.55 -5.69)"/><path class="cls-1" d="M332.16,49.52H321.51l-12,22.6-12-22.6H284.89a14.14,14.14,0,0,1,3.91,9.76V87.2A14.15,14.15,0,0,1,284.89,97h12.19a14.15,14.15,0,0,1-3.91-9.77V57.4l14.09,26.38,14.1-26.38V87.2A14.15,14.15,0,0,1,317.45,97h14.71a14.15,14.15,0,0,1-3.91-9.77V59.28A14.14,14.14,0,0,1,332.16,49.52Z" transform="translate(-5.55 -5.69)"/><path class="cls-1" d="M350.23,88.69l1.2-3.24h14.78l1.2,3.24a7.6,7.6,0,0,1-2,8.28h15.32a22.09,22.09,0,0,1-5.88-8.6L362.69,56.29h-4.21L346,88.39A22.48,22.48,0,0,1,340.09,97h12.18A7.6,7.6,0,0,1,350.23,88.69Zm8.7-22.81L365,82.15H352.73Z" transform="translate(-5.55 -5.69)"/><path class="cls-1" d="M420.58,90.53,412.4,77.11c5-1.44,8.43-5.44,8.43-9.65,0-7-8-11.17-15.63-11.17H389.88a11.81,11.81,0,0,1,3.91,8.78V88.2A11.8,11.8,0,0,1,389.88,97h14.71a11.8,11.8,0,0,1-3.91-8.77V78.29h5.06L416.54,97h9.73l-1.37-1.23A23.28,23.28,0,0,1,420.58,90.53ZM405.2,75h-4.52V59.6h4.52a7.69,7.69,0,1,1,0,15.38Z" transform="translate(-5.55 -5.69)"/><path class="cls-2" d="M35.6,69.92c.06,0,.09,0,0,0h0s0,0,0,0Z" transform="translate(-5.55 -5.69)"/><polygon class="cls-2" points="30.09 64.18 30.09 64.18 30.09 64.18 30.09 64.18"/><path class="cls-2" d="M35.64,69.87h-.07l0,0Z" transform="translate(-5.55 -5.69)"/><path class="cls-2" d="M35.6,69.92s0,0,0,0l0,0Z" transform="translate(-5.55 -5.69)"/><polygon class="cls-2" points="28.4 65.39 28.41 65.39 28.41 65.39 28.4 65.39"/><path class="cls-2" d="M34,71.08l-.09,0-.08.07a.12.12,0,0,0,.16,0v0Z" transform="translate(-5.55 -5.69)"/><path class="cls-2" d="M34,71.08v0Z" transform="translate(-5.55 -5.69)"/><path class="cls-2" d="M34.73,70.3h0a.11.11,0,0,1,0,.08.08.08,0,0,1,0,.05A.09.09,0,0,0,34.73,70.3Z" transform="translate(-5.55 -5.69)"/><path class="cls-2" d="M34.53,70.41a.1.1,0,0,0,.15,0h0a.1.1,0,0,0,0-.06.11.11,0,0,0,0-.08Z" transform="translate(-5.55 -5.69)"/><path class="cls-2" d="M34.68,70.43a.08.08,0,0,0,0-.05.1.1,0,0,1,0,.06Z" transform="translate(-5.55 -5.69)"/><path class="cls-2" d="M69.24,110.76s0-.09-.11-.09h0A.12.12,0,0,1,69.24,110.76Z" transform="translate(-5.55 -5.69)"/><polygon class="cls-2" points="63.7 105.09 63.7 105.09 63.7 105.09 63.7 105.09"/><path class="cls-2" d="M69.17,110.91a.12.12,0,0,0,.08-.14.11.11,0,0,0-.11-.09Z" transform="translate(-5.55 -5.69)"/><path class="cls-2" d="M69.24,110.76h0Z" transform="translate(-5.55 -5.69)"/><path class="cls-2" d="M69.14,110.68h0a.11.11,0,0,1,.11.09h0A.12.12,0,0,0,69.14,110.68Z" transform="translate(-5.55 -5.69)"/><polygon class="cls-2" points="64.82 106.68 64.82 106.68 64.82 106.68 64.82 106.68"/><path class="cls-2" d="M70.21,112.35h0a.11.11,0,0,1,.12,0l0,0A.11.11,0,0,0,70.21,112.35Z" transform="translate(-5.55 -5.69)"/><path class="cls-2" d="M70.37,112.37l0,0a.11.11,0,0,0-.12,0l.16.15a0,0,0,0,1,0,0A.12.12,0,0,0,70.37,112.37Z" transform="translate(-5.55 -5.69)"/><polygon class="cls-2" points="64.82 106.68 64.81 106.68 64.82 106.68 64.82 106.68"/><path class="cls-2" d="M70.37,112.37h0l0,0,0,0Z" transform="translate(-5.55 -5.69)"/><path class="cls-2" d="M75.48,97.43V64.15H71.2V84.68H63.73V89H71.2v8.48a10.15,10.15,0,0,1-2,6h8.19A10.16,10.16,0,0,1,75.48,97.43Z" transform="translate(-5.55 -5.69)"/><path class="cls-2" d="M42.78,89H57.34v8.48a10.16,10.16,0,0,1-2,6h8.19a10.16,10.16,0,0,1-2-6V47.79h5.91a3.68,3.68,0,0,1,3.67,3.67V58H63.73v4.28H85.07v22.4H77.61V89h7.46v8.48a10.15,10.15,0,0,1-1.95,6h8.19a10.16,10.16,0,0,1-2-6V49.53a10.12,10.12,0,0,1,2-6H79.15a7.92,7.92,0,0,0-5.4,2.13l-.42.38-.41-.38a7.94,7.94,0,0,0-5.14-2.12H55.38a10.16,10.16,0,0,1,2,6V58L42.78,58a10.16,10.16,0,0,1,2,6V82.94A10.12,10.12,0,0,1,42.78,89ZM75.51,51.44a3.66,3.66,0,0,1,3.65-3.65H85V57.93H75.51ZM49,62.28h8.33v22.4H49Z" transform="translate(-5.55 -5.69)"/><path class="cls-2" d="M95.35,84.68H91.48V89l4.76-.06A7.93,7.93,0,0,0,103.31,81V66a8,8,0,0,0-8-8H91.48v4.28h3.87A3.67,3.67,0,0,1,99,66V81A3.68,3.68,0,0,1,95.35,84.68Z" transform="translate(-5.55 -5.69)"/><path class="cls-2" d="M72.35,35.72a.12.12,0,0,0,.23-.06C71.39,28.26,69.87,21,68.05,13.6L61.7,7.77l.22,7.91A124.73,124.73,0,0,1,72.35,35.72Z" transform="translate(-5.55 -5.69)"/><path class="cls-2" d="M69.76,38.23a.12.12,0,0,0,0-.24,128,128,0,0,0-21.9-5l-8,2.54c2.29.79,5.95,2.2,7.24,2.7Z" transform="translate(-5.55 -5.69)"/><path class="cls-2" d="M71.57,36a.11.11,0,0,0,.2-.11A109.42,109.42,0,0,0,60.33,16.51L52.4,13l3.24,6.94A87.16,87.16,0,0,1,71.57,36Z" transform="translate(-5.55 -5.69)"/><path class="cls-2" d="M70.83,36.54c.11.09.26-.06.17-.16A85.81,85.81,0,0,0,54.44,21.09L46,19.67l5.16,5.58A89.06,89.06,0,0,1,70.83,36.54Z" transform="translate(-5.55 -5.69)"/><path class="cls-2" d="M70.18,37.32a.12.12,0,0,0,.11-.21A86.61,86.61,0,0,0,50.37,26.63l-8.44.58,6.38,4.15A113.3,113.3,0,0,1,70.18,37.32Z" transform="translate(-5.55 -5.69)"/><path class="cls-2" d="M74.3,35.72a124.8,124.8,0,0,1,10.44-20L85,7.77,78.6,13.6C76.78,21,75.27,28.26,74.08,35.66,74.05,35.79,74.25,35.84,74.3,35.72Z" transform="translate(-5.55 -5.69)"/><path class="cls-2" d="M76.86,38a.12.12,0,0,0,0,.24H99.57c1.29-.5,5-1.91,7.24-2.7l-8-2.54A127.77,127.77,0,0,0,76.86,38Z" transform="translate(-5.55 -5.69)"/><path class="cls-2" d="M75.08,36A87.8,87.8,0,0,1,91,19.93s3-6.4,3.25-6.94l-7.94,3.52A109.33,109.33,0,0,0,74.89,35.92.11.11,0,0,0,75.08,36Z" transform="translate(-5.55 -5.69)"/><path class="cls-2" d="M75.66,36.38a.11.11,0,0,0,.16.16A89.38,89.38,0,0,1,95.5,25.25l5.15-5.58-8.44,1.42A85.73,85.73,0,0,0,75.66,36.38Z" transform="translate(-5.55 -5.69)"/><path class="cls-2" d="M76.36,37.11a.12.12,0,0,0,.11.21,113.7,113.7,0,0,1,21.87-6l6.39-4.15-8.44-.58A86.69,86.69,0,0,0,76.36,37.11Z" transform="translate(-5.55 -5.69)"/><path class="cls-2" d="M73.33,35.69a.13.13,0,0,0,.12-.11c.88-7.41,2-15,3.28-22.29l-3.4-7.6-3.41,7.6c1.32,7.33,2.41,14.88,3.29,22.29A.12.12,0,0,0,73.33,35.69Z" transform="translate(-5.55 -5.69)"/><path class="cls-2" d="M111.1,72.49a.12.12,0,0,0,.06.23c7.4-1.2,14.69-2.71,22.06-4.53l5.83-6.35-7.91.21A124.8,124.8,0,0,1,111.1,72.49Z" transform="translate(-5.55 -5.69)"/><path class="cls-2" d="M108.82,69.93a126.83,126.83,0,0,0,5-21.9L111.29,40c-.79,2.29-2.2,6-2.7,7.24V69.89A.12.12,0,0,0,108.82,69.93Z" transform="translate(-5.55 -5.69)"/><path class="cls-2" d="M110.79,71.71a.11.11,0,0,0,.11.19,108.73,108.73,0,0,0,19.41-11.43l3.52-7.93-6.94,3.24A87.8,87.8,0,0,1,110.79,71.71Z" transform="translate(-5.55 -5.69)"/><path class="cls-2" d="M110.44,71.13a85.73,85.73,0,0,0,15.29-16.55s1.12-6.64,1.42-8.44l-5.58,5.15A89.39,89.39,0,0,1,110.27,71,.12.12,0,0,0,110.44,71.13Z" transform="translate(-5.55 -5.69)"/><path class="cls-2" d="M109.71,70.43a86.61,86.61,0,0,0,10.48-19.92l-.58-8.45-4.15,6.39a113.5,113.5,0,0,1-6,21.87A.12.12,0,0,0,109.71,70.43Z" transform="translate(-5.55 -5.69)"/><path class="cls-2" d="M133.22,78.74c-7.37-1.82-14.66-3.33-22.06-4.53a.12.12,0,0,0-.06.23,125.54,125.54,0,0,1,20,10.43l7.91.22Z" transform="translate(-5.55 -5.69)"/><path class="cls-2" d="M113.83,98.89a126.72,126.72,0,0,0-5-21.89.12.12,0,0,0-.23,0V99.7c.5,1.29,1.91,5,2.7,7.24Z" transform="translate(-5.55 -5.69)"/><path class="cls-2" d="M130.31,86.46A109.42,109.42,0,0,0,110.9,75a.11.11,0,0,0-.11.2,87.48,87.48,0,0,1,16.1,15.93l6.94,3.24Z" transform="translate(-5.55 -5.69)"/><path class="cls-2" d="M127.15,100.79c-.3-1.8-1.42-8.44-1.42-8.44A85.43,85.43,0,0,0,110.44,75.8a.12.12,0,0,0-.17.16,89.53,89.53,0,0,1,11.3,19.67Z" transform="translate(-5.55 -5.69)"/><path class="cls-2" d="M120.19,96.42A86.61,86.61,0,0,0,109.71,76.5a.12.12,0,0,0-.21.11,113.3,113.3,0,0,1,6,21.87l4.15,6.39Z" transform="translate(-5.55 -5.69)"/><path class="cls-2" d="M133.54,70.06c-7.34,1.32-14.89,2.41-22.3,3.29a.11.11,0,0,0-.11.11.12.12,0,0,0,.11.12c7.41.88,15,2,22.3,3.29l7.59-3.41Z" transform="translate(-5.55 -5.69)"/><path class="cls-2" d="M74.1,111.3c1.2,7.39,2.71,14.69,4.53,22.06L85,139.19l-.21-7.91a125.22,125.22,0,0,1-10.44-20A.12.12,0,0,0,74.1,111.3Z" transform="translate(-5.55 -5.69)"/><path class="cls-2" d="M76.93,108.73a.12.12,0,0,0,0,.23,126.83,126.83,0,0,0,21.9,5c1.86-.6,6.71-2.12,8-2.54-2.28-.79-6-2.21-7.23-2.7Z" transform="translate(-5.55 -5.69)"/><path class="cls-2" d="M94.28,134,91,127a87.83,87.83,0,0,1-15.93-16.11.12.12,0,0,0-.2.11,109.84,109.84,0,0,0,11.44,19.42Z" transform="translate(-5.55 -5.69)"/><path class="cls-2" d="M95.53,121.7a89,89,0,0,1-19.68-11.29.12.12,0,0,0-.16.17,86,86,0,0,0,16.55,15.29l8.44,1.42Z" transform="translate(-5.55 -5.69)"/><path class="cls-2" d="M98.37,115.6a114,114,0,0,1-21.87-6,.11.11,0,0,0-.11.2,86.61,86.61,0,0,0,19.92,10.49l8.45-.58Z" transform="translate(-5.55 -5.69)"/><path class="cls-2" d="M72.61,111.3a.12.12,0,0,0-.23-.06,125.22,125.22,0,0,1-10.44,20l-.21,7.91,6.35-5.83C69.9,126,71.41,118.69,72.61,111.3Z" transform="translate(-5.55 -5.69)"/><path class="cls-2" d="M47.92,114a126.83,126.83,0,0,0,21.9-5,.12.12,0,0,0,0-.23H47.11c-1.28.49-5,1.91-7.23,2.7C41.21,111.85,46.06,113.37,47.92,114Z" transform="translate(-5.55 -5.69)"/><path class="cls-2" d="M71.8,111a.12.12,0,0,0-.2-.11c-.4.53-.8,1-1.21,1.57,0,0,0,0,0,0h0A89.59,89.59,0,0,1,55.67,127L52.43,134l7.93-3.52A109.84,109.84,0,0,0,71.8,111Z" transform="translate(-5.55 -5.69)"/><path class="cls-2" d="M70.39,112.49a0,0,0,0,0,0,0h0S70.38,112.5,70.39,112.49Z" transform="translate(-5.55 -5.69)"/><path class="cls-2" d="M46,127.29l8.44-1.42A86,86,0,0,0,71,110.58a.12.12,0,0,0-.16-.17A89,89,0,0,1,51.18,121.7Zm23.66-15.67,0,0a.13.13,0,0,1,0,.15l-.11-.2a.08.08,0,0,1,.08,0,.09.09,0,0,0-.09,0h0A.11.11,0,0,1,69.69,111.62Z" transform="translate(-5.55 -5.69)"/><path class="cls-2" d="M69.65,111.59s0,0,0,0a.11.11,0,0,0-.13,0h0A.09.09,0,0,1,69.65,111.59Z" transform="translate(-5.55 -5.69)"/><path class="cls-2" d="M69.65,111.59a.08.08,0,0,0-.08,0l.11.2a.13.13,0,0,0,0-.15l0,0,0,0A.13.13,0,0,0,69.65,111.59Z" transform="translate(-5.55 -5.69)"/><path class="cls-2" d="M69.65,111.59a.13.13,0,0,1,.06,0l0,0S69.67,111.59,69.65,111.59Z" transform="translate(-5.55 -5.69)"/><path class="cls-2" d="M70.21,109.64a114,114,0,0,1-21.87,6L42,119.75l8.45.58a86.61,86.61,0,0,0,19.92-10.49A.11.11,0,0,0,70.21,109.64Z" transform="translate(-5.55 -5.69)"/><path class="cls-2" d="M73.35,141.27l3.41-7.6c-1.32-7.33-2.41-14.88-3.29-22.29a.11.11,0,0,0-.12-.11.1.1,0,0,0-.11.11c-.88,7.41-2,15-3.29,22.29Z" transform="translate(-5.55 -5.69)"/><path class="cls-2" d="M35.52,74.24c-7.4,1.19-14.69,2.71-22.06,4.53L7.63,85.11l7.91-.21a125.15,125.15,0,0,1,20-10.43A.12.12,0,0,0,35.52,74.24Z" transform="translate(-5.55 -5.69)"/><path class="cls-2" d="M35.39,107c.79-2.29,2.2-6,2.7-7.24V77.06a.12.12,0,0,0-.23,0,127,127,0,0,0-5,21.9C33.45,100.79,35,105.64,35.39,107Z" transform="translate(-5.55 -5.69)"/><path class="cls-2" d="M35.9,75.24c.1-.08,0-.25-.11-.19A109.48,109.48,0,0,0,16.37,86.49l-3.52,7.93,6.94-3.24A87.59,87.59,0,0,1,35.9,75.24Z" transform="translate(-5.55 -5.69)"/><path class="cls-2" d="M36.41,76c.08-.11-.06-.26-.17-.17A86.13,86.13,0,0,0,21,92.38s-1.12,6.64-1.42,8.44l5.59-5.16A88.67,88.67,0,0,1,36.41,76Z" transform="translate(-5.55 -5.69)"/><path class="cls-2" d="M37,76.52A86.9,86.9,0,0,0,26.49,96.45l.58,8.44,4.15-6.38a114.33,114.33,0,0,1,6-21.88A.11.11,0,0,0,37,76.52Z" transform="translate(-5.55 -5.69)"/><path class="cls-2" d="M35.52,72.74a.11.11,0,0,0,.06-.22,126,126,0,0,1-20-10.44l-7.91-.21,5.83,6.35C20.83,70,28.12,71.55,35.52,72.74Zm-2.07-1a.11.11,0,0,1,0,.15.11.11,0,0,0,0-.15l0,0Z" transform="translate(-5.55 -5.69)"/><path class="cls-2" d="M33.47,71.84a.11.11,0,0,0,0-.15l0,0,0,0A.11.11,0,0,1,33.47,71.84Z" transform="translate(-5.55 -5.69)"/><path class="cls-2" d="M38.09,69.92V47.25c-.5-1.29-1.91-5-2.7-7.24-.42,1.34-1.94,6.19-2.54,8.05a127,127,0,0,0,5,21.9A.12.12,0,0,0,38.09,69.92Z" transform="translate(-5.55 -5.69)"/><path class="cls-2" d="M33.87,71,34,71a.06.06,0,0,1,0,0,.06.06,0,0,0,0,0h0a.14.14,0,0,1,0,.14c.61.29,1.22.58,1.83.85.12.06.21-.11.11-.19A87.59,87.59,0,0,1,19.79,55.8l-6.94-3.24,3.52,7.94A112.22,112.22,0,0,0,33.87,71Z" transform="translate(-5.55 -5.69)"/><path class="cls-2" d="M34,70.94h0a.06.06,0,0,1,0,0,.14.14,0,0,1,0,.09h0A.14.14,0,0,0,34,70.94Z" transform="translate(-5.55 -5.69)"/><path class="cls-2" d="M34,71a.06.06,0,0,0,0,0l-.09.09.09,0A.14.14,0,0,0,34,71Z" transform="translate(-5.55 -5.69)"/><path class="cls-2" d="M34,71.08h0A.14.14,0,0,0,34,71,.14.14,0,0,1,34,71.08Z" transform="translate(-5.55 -5.69)"/><path class="cls-2" d="M36.24,71.16a.12.12,0,0,0,.17-.16c-.28-.36-.54-.72-.81-1.08h0a.27.27,0,0,1-.12,0s-.06,0-.07,0l.16,0A91.34,91.34,0,0,1,25.12,51.32l-5.59-5.15L21,54.61A86,86,0,0,0,36.24,71.16Z" transform="translate(-5.55 -5.69)"/><polygon class="cls-2" points="30.05 64.23 30.05 64.23 30.05 64.23 30.05 64.23"/><path class="cls-2" d="M35.48,70a.27.27,0,0,0,.12,0h0a.27.27,0,0,1-.12,0,.27.27,0,0,0,.12,0h0l0,0-.16,0S35.46,69.94,35.48,70Z" transform="translate(-5.55 -5.69)"/><polygon class="cls-2" points="30.05 64.23 30.05 64.23 30.05 64.23 30.05 64.23 30.05 64.23"/><path class="cls-2" d="M37.18,70.35a114.43,114.43,0,0,1-6-21.87l-4.15-6.39-.58,8.44A86.9,86.9,0,0,0,37,70.46.11.11,0,0,0,37.18,70.35Z" transform="translate(-5.55 -5.69)"/><path class="cls-2" d="M35.44,73.61a.12.12,0,0,0,.11-.12.13.13,0,0,0-.11-.12c-7.41-.88-15-2-22.29-3.28l-7.6,3.4,7.6,3.41C20.48,75.58,28,74.49,35.44,73.61Z" transform="translate(-5.55 -5.69)"/></svg>