<?xml version="1.0" encoding="utf-8"?><svg id="Layer_1" data-name="Layer 1" xmlns="http://www.w3.org/2000/svg" viewBox="0 0 367.45 367.29"><defs><style>.cls-1{fill:#231f20;opacity:0.03;}</style></defs><title>Del Mar Logo - grey-3pct</title><path class="cls-1" d="M189.5,248.6V158.41H177.9v55.66H157.66v11.71H177.9v23A27.54,27.54,0,0,1,172.48,265h22.19A27.34,27.34,0,0,1,189.5,248.6Zm-88.61-22.85h39.45v23A27.52,27.52,0,0,1,134.92,265h22.25a27.52,27.52,0,0,1-5.42-16.26V114.08h16a10,10,0,0,1,10,10v17.72H157.66v11.6h57.82v60.72H195.27v11.71h20.21v23A27.54,27.54,0,0,1,210.06,265h22.2a27.47,27.47,0,0,1-5.42-16.26v-130a27.38,27.38,0,0,1,5.42-16.26H199.44a21.47,21.47,0,0,0-14.63,5.85l-1.14,1-1.11-1a21.51,21.51,0,0,0-13.93-5.74H135a27.52,27.52,0,0,1,5.42,16.26v22.92H100.89a27.52,27.52,0,0,1,5.42,16.26v51.24A27.56,27.56,0,0,1,100.89,225.75ZM189.69,124a9.94,9.94,0,0,1,9.89-9.89H215.4v27.48H189.69Zm-71.95,29.38h22.57v60.72H117.74Zm125.6,60.72H232.85v11.71l12.9-.16a21.49,21.49,0,0,0,19.16-21.52V163.45a21.68,21.68,0,0,0-21.68-21.67H232.85v11.59h10.49a10,10,0,0,1,9.89,10h0V204a10,10,0,0,1-9.89,10ZM181,81.29a.33.33,0,0,0,.43.17h0a.34.34,0,0,0,.11-.17c-3.23-20.05-7.35-39.72-12.28-59.77L152.16,5.64l.59,21.46A335.69,335.69,0,0,1,181,81.29Zm-7,6.89a.32.32,0,0,0,.32-.33.32.32,0,0,0-.32-.32A345,345,0,0,0,114.65,74L93,80.86c6.21,2.14,16.13,6,19.62,7.32Zm4.85-6.05a.26.26,0,0,0,.38,0s0,0,0,0a.28.28,0,0,0,0-.4,296,296,0,0,0-30.81-52.41L127,19.81l8.78,18.8A236.59,236.59,0,0,1,178.85,82.13ZM176.9,83.6c.29.24.7-.17.46-.44a232.84,232.84,0,0,0-44.88-41.43l-22.87-3.79,14,15.12A241.08,241.08,0,0,1,176.9,83.6Zm-1.77,2.11a.33.33,0,0,0,.41-.21h0a.29.29,0,0,0,0-.35,235.31,235.31,0,0,0-54.09-28.4L98.58,58.31l17.29,11.25A306.94,306.94,0,0,1,175.13,85.71Zm11.17-4.42A337.44,337.44,0,0,1,214.59,27.1l.7-21.54L198,21.35c-4.93,20.06-9,39.73-12.25,59.78A.31.31,0,1,0,186.3,81.29Zm6.94,6.26a.33.33,0,0,0-.33.33.32.32,0,0,0,.33.32h61.48c3.5-1.35,13.55-5.17,19.62-7.31L252.66,74A347.41,347.41,0,0,0,193.24,87.55Zm-4.83-5.42a237.75,237.75,0,0,1,43.14-43.54l8.81-18.81-21.52,9.54a296.94,296.94,0,0,0-30.94,52.6.27.27,0,0,0,.24.3h.06A.22.22,0,0,0,188.41,82.13Zm1.57,1a.31.31,0,0,0,.44.44A242.73,242.73,0,0,1,243.88,53L257.7,37.94l-22.87,3.79A233,233,0,0,0,190,83.16Zm1.9,2a.32.32,0,0,0,0,.46h0a.29.29,0,0,0,.35,0A309.69,309.69,0,0,1,251.5,69.34L268.81,58.1l-22.87-1.57A234.47,234.47,0,0,0,191.88,85.14Zm-8.21-3.85A.36.36,0,0,0,184,81c2.38-20.08,5.41-40.65,8.88-60.41L183.67,0l-9.24,20.59C178,40.46,181,60.92,183.34,81A.36.36,0,0,0,183.67,81.29Zm-30.78,258.9-.6,21.46,17.13-15.88c4.93-20,9.05-39.73,12.27-59.78a.29.29,0,0,0-.11-.16h0a.32.32,0,0,0-.43.16A337,337,0,0,1,152.89,340.19Zm-40.16-61.08c-3.5,1.35-13.42,5.17-19.62,7.32l21.68,6.88a345.58,345.58,0,0,0,59.34-13.55.33.33,0,0,0,.33-.33.32.32,0,0,0-.33-.32Zm23.14,49.56-8.78,18.81L148.58,338a296.64,296.64,0,0,0,30.81-52.41.3.3,0,0,0,0-.41l0,0a.27.27,0,0,0-.38,0A235.91,235.91,0,0,1,135.87,328.67Zm-12.14-14.44-14,15.12,22.87-3.8a232.15,232.15,0,0,0,44.87-41.43c.25-.27-.16-.68-.46-.43A241.18,241.18,0,0,1,123.73,314.23ZM116,297.73,98.72,309l22.87,1.57a234.92,234.92,0,0,0,54.09-28.4.32.32,0,0,0,0-.35h0a.34.34,0,0,0-.41-.22A308.08,308.08,0,0,1,116,297.73Zm69.83-11.58c3.22,20.06,7.31,39.73,12.25,59.78l17.34,15.8-.71-21.54A339.16,339.16,0,0,1,186.43,286,.31.31,0,1,0,185.84,286.15Zm67,7.13,21.68-6.88c-6.07-2.14-16.13-6-19.62-7.32H193.37a.32.32,0,0,0-.32.33.32.32,0,0,0,.32.32A346.57,346.57,0,0,0,252.8,293.28Zm-64.47-8.21h-.06a.28.28,0,0,0-.24.3A296.74,296.74,0,0,0,219,338l21.51,9.53-8.8-18.8a237.8,237.8,0,0,1-43.14-43.55A.23.23,0,0,0,188.33,285.07ZM235,325.55l22.87,3.8L244,314.28a242.36,242.36,0,0,1-53.47-30.59.3.3,0,1,0-.43.43A232.06,232.06,0,0,0,235,325.55Zm11.11-14.79L269,309.19l-17.32-11.25a309.6,309.6,0,0,1-59.26-16.26.32.32,0,0,0-.35,0h0a.32.32,0,0,0,0,.46A234.3,234.3,0,0,0,246.08,310.76Zm-62.6-24.47c-2.38,20.08-5.34,40.54-8.91,60.4l9.24,20.6,9.21-20.6c-3.47-19.75-6.5-40.32-8.89-60.4a.35.35,0,0,0-.32-.3A.36.36,0,0,0,183.48,286.29Zm-102.21-100a.33.33,0,0,0,.16-.43h0a.36.36,0,0,0-.16-.11c-20.06,3.23-39.73,7.35-59.78,12.28L5.61,215.18l21.46-.59A335.37,335.37,0,0,1,81.27,186.33Zm6.88,7a.32.32,0,0,0-.33-.32.32.32,0,0,0-.32.32A345.9,345.9,0,0,0,74,252.69l6.88,21.68c2.14-6.21,6-16.13,7.32-19.62Zm-6-4.85a.27.27,0,0,0,0-.38s0,0,0,0a.3.3,0,0,0-.41,0A296,296,0,0,0,29.29,218.9l-9.51,21.49,18.81-8.78A236,236,0,0,1,82.11,188.49Zm1.46,1.95c.24-.29-.16-.7-.43-.46A232.57,232.57,0,0,0,41.7,234.86l-3.79,22.87,15.12-14A241.48,241.48,0,0,1,83.57,190.44Zm2.11,1.77a.32.32,0,0,0-.21-.41h0a.3.3,0,0,0-.36,0,235.27,235.27,0,0,0-28.39,54.09l1.57,22.87,11.24-17.29A306.94,306.94,0,0,1,85.68,192.21ZM81.27,181a337.12,337.12,0,0,1-54.2-28.29l-21.54-.7,15.8,17.34c20.05,4.93,39.72,9,59.77,12.25A.31.31,0,1,0,81.27,181Zm6.26-6.94a.32.32,0,0,0,.32.33.33.33,0,0,0,.33-.33V112.62C86.82,109.12,83,99.07,80.86,93L74,114.68A346.46,346.46,0,0,0,87.53,174.1Zm-5.42,4.83a237.49,237.49,0,0,1-43.55-43.14L19.75,127l9.54,21.52a297.3,297.3,0,0,0,52.6,30.94.27.27,0,0,0,.3-.24v-.06A.21.21,0,0,0,82.11,178.93Zm1-1.57a.3.3,0,0,0,.43,0,.31.31,0,0,0,0-.44A242.29,242.29,0,0,1,53,123.46L37.91,109.64l3.79,22.87A232.7,232.7,0,0,0,83.14,177.36Zm2-1.9a.32.32,0,0,0,.46,0h0a.32.32,0,0,0,0-.35,309,309,0,0,1-16.26-59.27L58.07,98.53,56.5,121.4A234.86,234.86,0,0,0,85.11,175.46Zm-3.84,8.21a.37.37,0,0,0-.3-.33c-20.08-2.38-40.65-5.41-60.4-8.88L0,183.67l20.6,9.24c19.86-3.58,40.32-6.53,60.4-8.91A.37.37,0,0,0,81.27,183.67Zm259.05,30.92,21.46.59-15.87-17.12c-20.06-4.93-39.73-9.05-59.78-12.28a.39.39,0,0,0-.17.11h0a.33.33,0,0,0,.17.43A335.69,335.69,0,0,1,340.32,214.59Zm-61.08,40.16c1.36,3.49,5.18,13.41,7.32,19.62l6.88-21.68a345,345,0,0,0-13.55-59.35.32.32,0,0,0-.32-.32.32.32,0,0,0-.33.32Zm49.57-23.14,18.8,8.78L338.1,218.9a296,296,0,0,0-52.41-30.81.28.28,0,0,0-.4,0l0,0a.27.27,0,0,0,0,.38A236.59,236.59,0,0,1,328.81,231.61Zm-14.45,12.14,15.12,14-3.79-22.87A232.84,232.84,0,0,0,284.26,190c-.27-.24-.68.17-.44.46A241.08,241.08,0,0,1,314.36,243.75Zm-16.5,7.72,11.25,17.29,1.57-22.87a235.31,235.31,0,0,0-28.4-54.09.29.29,0,0,0-.35,0h0a.32.32,0,0,0-.22.41A306.94,306.94,0,0,1,297.86,251.47Zm-11.57-69.83c20-3.23,39.73-7.32,59.78-12.25l15.8-17.34-21.55.7A337.44,337.44,0,0,1,286.13,181,.31.31,0,1,0,286.29,181.64Zm7.13-67L286.53,93c-2.14,6.07-6,16.12-7.31,19.62V174.1a.32.32,0,0,0,.32.33.33.33,0,0,0,.33-.33A347.41,347.41,0,0,0,293.42,114.68Zm-8.21,64.46a.06.06,0,0,0,0,.06.26.26,0,0,0,.29.24,296.94,296.94,0,0,0,52.6-30.94L347.64,127l-18.81,8.81a237.75,237.75,0,0,1-43.54,43.14A.2.2,0,0,0,285.21,179.14Zm40.48-46.63,3.79-22.87-15.06,13.82a242.33,242.33,0,0,1-30.6,53.46.31.31,0,1,0,.44.44A233,233,0,0,0,325.69,132.51Zm-14.8-11.11-1.57-22.87-11.24,17.31a309.69,309.69,0,0,1-16.26,59.27.29.29,0,0,0,0,.35h0a.32.32,0,0,0,.46,0A234.09,234.09,0,0,0,310.89,121.4ZM286.43,184c20.08,2.38,40.53,5.33,60.4,8.91l20.59-9.24-20.59-9.21c-19.76,3.47-40.32,6.5-60.4,8.88a.33.33,0,0,0,0,.66Z" transform="translate(0.03)"/></svg>