<?xml version="1.0" encoding="utf-8"?><svg id="Layer_1" data-name="Layer 1" xmlns="http://www.w3.org/2000/svg" viewBox="0 0 318.13 55.74"><defs><style>.cls-1{fill:#fff;}</style></defs><title>DelMar_logotype_only_reversed</title><path class="cls-1" d="M50,31.23C50,17,40.91,3.36,27.23,3.36H5.45A16.61,16.61,0,0,1,10,14.83v32.8A16.61,16.61,0,0,1,5.45,59.1H27.23C40.91,59.1,50,45.49,50,31.23ZM25.34,54.56h-7.2V7.89h7.2C35.51,7.89,40,20.27,40,31.23S35.51,54.56,25.34,54.56Z" transform="translate(-5.45 -3.36)"/><path class="cls-1" d="M65,59.1H98.26V49.7a21,21,0,0,1-14.19,5.51H77.66V35.45h4.26a16.06,16.06,0,0,1,10.76,4.13V27.43a16.06,16.06,0,0,1-10.76,4.13H77.66V15.2h6.41a21.06,21.06,0,0,1,14.19,5.51V11.32H65a13.84,13.84,0,0,1,4.59,10.3V48.79A13.88,13.88,0,0,1,65,59.1Z" transform="translate(-5.45 -3.36)"/><path class="cls-1" d="M113.24,59.1h31.4V49.7a21,21,0,0,1-14.19,5.51h-4.53V21.62a13.82,13.82,0,0,1,4.6-10.3H113.24a13.84,13.84,0,0,1,4.59,10.3V48.79A13.88,13.88,0,0,1,113.24,59.1Z" transform="translate(-5.45 -3.36)"/><path class="cls-1" d="M213,3.36H200.52L186.39,29.91,172.27,3.36H157.51a16.65,16.65,0,0,1,4.59,11.47v32.8a16.65,16.65,0,0,1-4.59,11.47h14.31a16.61,16.61,0,0,1-4.59-11.47v-35l16.56,31,16.55-31v35a16.61,16.61,0,0,1-4.59,11.47H213a16.65,16.65,0,0,1-4.59-11.47V14.83A16.65,16.65,0,0,1,213,3.36Z" transform="translate(-5.45 -3.36)"/><path class="cls-1" d="M234.26,49.37l1.41-3.8H253l1.41,3.8A8.92,8.92,0,0,1,252,59.1h18a25.94,25.94,0,0,1-6.9-10.1L248.89,11.31H244L229.3,49a26.39,26.39,0,0,1-7,10.08h14.31A8.92,8.92,0,0,1,234.26,49.37Zm10.22-26.8,7.11,19.12H237.2Z" transform="translate(-5.45 -3.36)"/><path class="cls-1" d="M316.9,51.54l-9.61-15.77c5.85-1.7,9.9-6.39,9.9-11.33,0-8.26-9.36-13.12-18.36-13.12h-18a13.86,13.86,0,0,1,4.59,10.3V48.79a13.88,13.88,0,0,1-4.59,10.31h17.28a13.86,13.86,0,0,1-4.6-10.31V37.15h5.94l12.69,22h11.43L322,57.66A27.64,27.64,0,0,1,316.9,51.54ZM298.83,33.26h-5.31V15.2h5.31a9,9,0,1,1,0,18.06Z" transform="translate(-5.45 -3.36)"/></svg>