<?xml version="1.0" encoding="utf-8"?><svg xmlns="http://www.w3.org/2000/svg" viewBox="0 0 426.3 107.04"><defs><style>.cls-1{fill:#cc9f54;}.cls-2{font-size:34.51px;fill:#4b858e;font-family:Montserrat-Medium, Montserrat;font-weight:500;}.cls-3{letter-spacing:0.15em;}.cls-4{letter-spacing:0.15em;}.cls-5{letter-spacing:0.15em;}.cls-6{letter-spacing:0.15em;}.cls-7{letter-spacing:0.14em;}.cls-8{letter-spacing:0.11em;}.cls-9{letter-spacing:0.11em;}.cls-10{letter-spacing:0.15em;}</style></defs><title>DelMar_RealEstateLogo</title><g id="Layer_1" data-name="Layer 1"><path class="cls-1" d="M21.53,52.35h-.06l-.06,0a.08.08,0,0,0,.11,0h0Z"/><path class="cls-1" d="M22,51.84h0a0,0,0,0,1,0,0h0a.05.05,0,0,0,0-.08h0Z"/><path class="cls-1" d="M21.89,51.91a.07.07,0,0,0,.09,0h0a0,0,0,0,0,0,0,0,0,0,0,0,0,0Z"/><path class="cls-1" d="M22,51.92h0a0,0,0,0,1,0,0Z"/><path class="cls-1" d="M44.87,78.63s0-.06-.08-.06h0A.09.09,0,0,1,44.87,78.63Z"/><path class="cls-1" d="M44.82,78.73a.07.07,0,0,0,0-.09.07.07,0,0,0-.07-.06Z"/><path class="cls-1" d="M44.8,78.59h0a.07.07,0,0,1,.07.06h0A.07.07,0,0,0,44.8,78.59Z"/><path class="cls-1" d="M45.51,79.68h0a.11.11,0,0,1,.08,0h0A.11.11,0,0,0,45.51,79.68Z"/><path class="cls-1" d="M45.61,79.7h0a.11.11,0,0,0-.08,0l.11.1h0A.07.07,0,0,0,45.61,79.7Z"/><path class="cls-1" d="M49,69.8v-22H46.16V61.37H41.22v2.86h4.94v5.61a6.69,6.69,0,0,1-1.32,4h5.42A6.73,6.73,0,0,1,49,69.8Z"/><path class="cls-1" d="M27.34,64.22H37v5.62a6.69,6.69,0,0,1-1.32,4H41.1a6.7,6.7,0,0,1-1.33-4V36.93h3.92a2.45,2.45,0,0,1,2.43,2.43v4.33h-4.9v2.84H55.35V61.37H50.41v2.86h4.94v5.61a6.7,6.7,0,0,1-1.33,4h5.43a6.77,6.77,0,0,1-1.33-4V38.05a6.77,6.77,0,0,1,1.33-4h-8a5.21,5.21,0,0,0-3.58,1.46l-.28.25-.27-.25a5.31,5.31,0,0,0-3.4-1.41H35.69a6.79,6.79,0,0,1,1.32,4v5.6H27.34a6.7,6.7,0,0,1,1.33,4V60.21A6.75,6.75,0,0,1,27.34,64.22ZM49,39.35a2.43,2.43,0,0,1,2.42-2.42h3.87v6.71H49ZM31.46,46.53H37V61.37H31.46Z"/><path class="cls-1" d="M62.16,61.37H59.59v2.86l3.16,0a5.25,5.25,0,0,0,4.68-5.26V49a5.3,5.3,0,0,0-5.3-5.3H59.59v2.83h2.57A2.43,2.43,0,0,1,64.57,49h0v9.93a2.43,2.43,0,0,1-2.41,2.46Z"/><path class="cls-1" d="M46.93,28.92s.06,0,.1,0h0v0c-.79-4.91-1.79-9.71-3-14.61l-4.16-3.88L40,15.67A82.55,82.55,0,0,1,46.93,28.92Z"/><path class="cls-1" d="M45.21,30.6a.09.09,0,0,0,.08-.08.08.08,0,0,0-.08-.08,83.89,83.89,0,0,0-14.5-3.31l-5.3,1.68c1.52.52,3.94,1.46,4.79,1.79Z"/><path class="cls-1" d="M46.4,29.12a.06.06,0,0,0,.09,0h0a.09.09,0,0,0,0-.1A73.75,73.75,0,0,0,39,16.21l-5.26-2.32,2.15,4.59A58,58,0,0,1,46.4,29.12Z"/><path class="cls-1" d="M45.92,29.48a.08.08,0,0,0,.11-.11,56.68,56.68,0,0,0-11-10.12l-5.59-.93L32.89,22A58.93,58.93,0,0,1,45.92,29.48Z"/><path class="cls-1" d="M45.49,30s.08,0,.1,0h0a.06.06,0,0,0,0-.08,57,57,0,0,0-13.25-6.94l-5.59.38L31,26.05A75.23,75.23,0,0,1,45.49,30Z"/><path class="cls-1" d="M48.22,28.92a82.55,82.55,0,0,1,6.91-13.25l.17-5.26-4.24,3.86c-1.2,4.9-2.2,9.7-3,14.61a.07.07,0,0,0,0,.09A.08.08,0,0,0,48.22,28.92Z"/><path class="cls-1" d="M49.91,30.45a.08.08,0,0,0-.08.07.08.08,0,0,0,.08.08h15c.85-.33,3.31-1.26,4.79-1.78l-5.29-1.69A85.18,85.18,0,0,0,49.91,30.45Z"/><path class="cls-1" d="M48.73,29.12A58.08,58.08,0,0,1,59.28,18.48l2.15-4.6-5.26,2.33a72.16,72.16,0,0,0-7.56,12.86.06.06,0,0,0,.06.07h0A0,0,0,0,0,48.73,29.12Z"/><path class="cls-1" d="M49.12,29.37a.08.08,0,0,0,0,.11.07.07,0,0,0,.1,0A59.24,59.24,0,0,1,62.29,22l3.38-3.68-5.59.93A56.91,56.91,0,0,0,49.12,29.37Z"/><path class="cls-1" d="M49.58,29.86a.08.08,0,0,0,0,.11h0a.07.07,0,0,0,.09,0,76.3,76.3,0,0,1,14.48-4l4.23-2.74-5.59-.39A57.09,57.09,0,0,0,49.58,29.86Z"/><path class="cls-1" d="M47.57,28.92s.08,0,.08-.08c.59-4.9,1.33-9.93,2.18-14.76l-2.26-5-2.25,5c.87,4.86,1.59,9.86,2.18,14.76A.08.08,0,0,0,47.57,28.92Z"/><path class="cls-1" d="M72.59,53.29a.07.07,0,0,0,0,.1h0s0,0,.08,0c4.9-.8,9.73-1.8,14.61-3l3.86-4.21-5.24.14A83.22,83.22,0,0,1,72.59,53.29Z"/><path class="cls-1" d="M71.08,51.59a84.82,84.82,0,0,0,3.31-14.5l-1.68-5.3c-.52,1.52-1.45,4-1.78,4.79v15a.07.07,0,0,0,.07.08h0A.1.1,0,0,0,71.08,51.59Z"/><path class="cls-1" d="M72.38,52.76a.07.07,0,0,0,.08.12,72.12,72.12,0,0,0,12.85-7.57l2.33-5.25-4.59,2.15A58.56,58.56,0,0,1,72.38,52.76Z"/><path class="cls-1" d="M72.15,52.39a57.26,57.26,0,0,0,10.13-11l.94-5.59-3.71,3.41A59.1,59.1,0,0,1,72,52.3a.08.08,0,0,0,.06.09h.06Z"/><path class="cls-1" d="M71.67,51.92a57.51,57.51,0,0,0,6.94-13.19l-.39-5.6-2.74,4.24a74.85,74.85,0,0,1-4,14.48.08.08,0,0,0,.07.1h0A.12.12,0,0,0,71.67,51.92Z"/><path class="cls-1" d="M87.24,57.43c-4.88-1.21-9.71-2.21-14.61-3a.07.07,0,0,0-.09,0h0a.1.1,0,0,0,0,.08,82.83,82.83,0,0,1,13.24,6.9l5.24.15Z"/><path class="cls-1" d="M74.4,70.77a84.85,84.85,0,0,0-3.32-14.5.07.07,0,0,0-.09-.05h0a.1.1,0,0,0-.06.05v15c.33.85,1.27,3.31,1.79,4.8Z"/><path class="cls-1" d="M85.31,62.54A72.22,72.22,0,0,0,72.46,55a.07.07,0,0,0-.1,0,.08.08,0,0,0,0,.1h0A57.25,57.25,0,0,1,83,65.61l4.6,2.14Z"/><path class="cls-1" d="M83.22,72l-.94-5.59a56.36,56.36,0,0,0-10.13-11,.08.08,0,0,0-.11,0,.14.14,0,0,0,0,.09,59.39,59.39,0,0,1,7.47,13Z"/><path class="cls-1" d="M78.61,69.13a57.72,57.72,0,0,0-6.94-13.19.08.08,0,0,0-.11,0h0a.08.08,0,0,0,0,.09,75.54,75.54,0,0,1,4,14.48l2.75,4.23Z"/><path class="cls-1" d="M87.46,51.68c-4.86.87-9.86,1.59-14.77,2.18a.08.08,0,0,0-.08.07h0a.11.11,0,0,0,.08.08c4.91.58,9.93,1.32,14.77,2.18l5-2.26Z"/><path class="cls-1" d="M48.08,79c.8,4.89,1.8,9.73,3,14.61l4.22,3.86-.14-5.24A83.7,83.7,0,0,1,48.25,79a.08.08,0,0,0-.07-.08h0a.1.1,0,0,0-.07.09h0Z"/><path class="cls-1" d="M50,77.26a.07.07,0,0,0-.05.1h0a0,0,0,0,0,.05,0,83.89,83.89,0,0,0,14.5,3.31c1.23-.39,4.45-1.4,5.3-1.68-1.51-.52-4-1.46-4.79-1.79Z"/><path class="cls-1" d="M61.45,94l-2.17-4.63A57.92,57.92,0,0,1,48.73,78.72a.09.09,0,0,0-.12,0h0a.06.06,0,0,0,0,.06,72.94,72.94,0,0,0,7.58,12.87Z"/><path class="cls-1" d="M62.29,85.87a58.67,58.67,0,0,1-13-7.47.09.09,0,0,0-.11,0,.08.08,0,0,0,0,.08,57,57,0,0,0,11,10.13l5.59.94Z"/><path class="cls-1" d="M64.16,81.84a75.14,75.14,0,0,1-14.49-4,.07.07,0,1,0-.1.11h0a57.84,57.84,0,0,0,13.25,7l5.6-.38Z"/><path class="cls-1" d="M47.1,79A.08.08,0,0,0,47,78.9h0A.08.08,0,0,0,47,79,82.51,82.51,0,0,1,40,92.19l-.13,5.24,4.2-3.86C45.3,88.72,46.3,83.88,47.1,79Z"/><path class="cls-1" d="M30.75,80.78a85.78,85.78,0,0,0,14.5-3.31s.07-.06,0-.1h0a.06.06,0,0,0,0-.06h-15c-.85.33-3.31,1.27-4.79,1.79C26.3,79.35,29.51,80.36,30.75,80.78Z"/><path class="cls-1" d="M46.56,78.79a.08.08,0,0,0-.06-.09h0s0,0-.07,0c-.27.35-.53.66-.8,1h0a60,60,0,0,1-9.75,9.63L33.73,94,39,91.67A71.82,71.82,0,0,0,46.56,78.79Z"/><path class="cls-1" d="M29.47,89.58l5.59-.94A57,57,0,0,0,46,78.51a.08.08,0,0,0,0-.11.11.11,0,0,0-.08,0,58.83,58.83,0,0,1-13,7.47ZM45.14,79.2h0a.09.09,0,0,1,0,.1l-.07-.13h0a.06.06,0,0,0-.06,0h0a.07.07,0,0,1,.1,0h0Z"/><path class="cls-1" d="M45.14,79.18h0a.07.07,0,0,0-.09,0h0a.07.07,0,0,1,.09,0Z"/><path class="cls-1" d="M45.14,79.18a.06.06,0,0,0-.06,0l.08.13a.09.09,0,0,0,0-.1h0Z"/><path class="cls-1" d="M45.51,77.92A75.86,75.86,0,0,1,31,81.9l-4.19,2.72,5.59.38a57.51,57.51,0,0,0,13.19-6.94.09.09,0,0,0,0-.12h0a.09.09,0,0,0-.12,0Z"/><path class="cls-1" d="M47.59,98.84l2.26-5C49,89,48.25,84,47.67,79a.08.08,0,0,0-.08-.07h0a.07.07,0,0,0-.07.06h0c-.58,4.91-1.32,9.93-2.18,14.76Z"/><path class="cls-1" d="M22.55,54.45c-4.9.78-9.72,1.79-14.61,3L4.06,61.64l5.25-.13A82.88,82.88,0,0,1,22.55,54.6a.09.09,0,0,0,.05-.1A.12.12,0,0,0,22.55,54.45Z"/><path class="cls-1" d="M22.45,76.14c.52-1.51,1.46-4,1.79-4.79v-15a.09.09,0,0,0-.1-.05h0a.1.1,0,0,0-.06.05,85.67,85.67,0,0,0-3.31,14.51C21.16,72,22.19,75.27,22.45,76.14Z"/><path class="cls-1" d="M22.79,55.11c.06,0,0-.17-.08-.13A73.22,73.22,0,0,0,9.85,62.56L7.52,67.81l4.6-2.15A57.93,57.93,0,0,1,22.79,55.11Z"/><path class="cls-1" d="M23.12,55.61A.08.08,0,0,0,23,55.5a57,57,0,0,0-10.09,11s-.74,4.4-1,5.59l3.72-3.4A58.88,58.88,0,0,1,23.12,55.61Z"/><path class="cls-1" d="M23.51,56a57.58,57.58,0,0,0-7,13.19l.39,5.59,2.75-4.22a75.84,75.84,0,0,1,4-14.49.08.08,0,0,0,0-.11A.09.09,0,0,0,23.51,56Z"/><path class="cls-1" d="M22.55,53.45a.08.08,0,0,0,.1-.05.08.08,0,0,0-.06-.09A83.32,83.32,0,0,1,9.31,46.39l-5.24-.14L8,50.46C12.81,51.64,17.63,52.66,22.55,53.45Zm-1.37-.66a.07.07,0,0,1,0,.1A.07.07,0,0,0,21.18,52.79Z"/><path class="cls-1" d="M21.18,52.86a.09.09,0,0,0,0-.1h0A.09.09,0,0,1,21.18,52.86Z"/><path class="cls-1" d="M24.24,51.58v-15c-.33-.85-1.27-3.31-1.79-4.79-.28.88-1.29,4.1-1.68,5.29a83.79,83.79,0,0,0,3.31,14.51.08.08,0,0,0,.08.08.09.09,0,0,0,.08-.08Z"/><path class="cls-1" d="M21.44,52.3h.09a.07.07,0,0,1,0,.09l1.21.57c.08,0,.14-.08.07-.13a58,58,0,0,1-10.69-10.6l-4.6-2.14,2.33,5.26A75.2,75.2,0,0,0,21.44,52.3Z"/><path class="cls-1" d="M21.53,52.26h0v.06h0Z"/><path class="cls-1" d="M21.53,52.3h0l-.06.06h.06Z"/><path class="cls-1" d="M21.53,52.35h0v0Z"/><path class="cls-1" d="M23,52.41a.11.11,0,0,0,.11,0,.08.08,0,0,0,0-.09l-.53-.72h0a59.62,59.62,0,0,1-6.92-12.31L12,35.86l1,5.59A57.62,57.62,0,0,0,23,52.41Z"/><path class="cls-1" d="M23.63,51.87a75.74,75.74,0,0,1-4-14.48l-2.75-4.24-.38,5.59a57.34,57.34,0,0,0,7,13.2.09.09,0,0,0,.11,0h0A.09.09,0,0,0,23.63,51.87Z"/><path class="cls-1" d="M22.48,54a.08.08,0,0,0,0-.16h0c-4.91-.58-9.93-1.32-14.76-2.17L2.69,54l5,2.26C12.57,55.33,17.55,54.61,22.48,54Z"/></g><g id="real_estate" data-name="real estate"><text class="cls-2" transform="translate(124.1 65.93)"><tspan class="cls-3">RE</tspan><tspan class="cls-4" x="58.56" y="0">A</tspan><tspan class="cls-5" x="88.96" y="0">L </tspan><tspan class="cls-6" x="129.09" y="0">E</tspan><tspan class="cls-7" x="157.35" y="0">S</tspan><tspan class="cls-8" x="183.6" y="0">T</tspan><tspan class="cls-9" x="207.83" y="0">A</tspan><tspan class="cls-10" x="237.02" y="0">T</tspan><tspan x="262.45" y="0">E</tspan></text></g></svg>